# xmcd
#
# Track frame offsets: 
#        150
#        18360
#        39650
#        65476
#        85505
#        102775
#        120206
#        134031
#        166597
#        182685
#        212070
#        231637
#        256780
#        279860
#        293125
#        308803
#        337986
#
# Disc length: 4789 seconds
#
# Revision: 3
# Processed by: cddbd v1.5.2PL0 Copyright (c) Steve Scherf et al.
# Submitted via: ExactAudioCopy v1.3
#
DISCID=e312b311
DTITLE=Various Artist - Akella Presents - vol.112 - Women's Blues  CD
DTITLE=1
DYEAR=2017
DGENRE=Blues
TTITLE0=Maria Muldaur - Meet Me At Midnight
TTITLE1=Sena Ehrhardt - Help Me Through the Day
TTITLE2=Cee Cee James - Love Makes Change
TTITLE3=Edlene Hart - Livin' A Lie
TTITLE4=Karen Lovely - Other Plans
TTITLE5=Mojo Juju - Rain It Down
TTITLE6=The Dana Fuchs Band - Bible Baby
TTITLE7=Malaya Blue - Let's Reinvent (Love)
TTITLE8=Thornetta Davis - Set Me Free
TTITLE9=Hurricane Ruth - My Heart Aches for You
TTITLE10=Zakiya Hooker - Protect Me From The Blues
TTITLE11=Shakura S'aida - He Doesn't Care (About My Broken Heart)
TTITLE12=Marva Wright - Driving Wheel
TTITLE13=Roxanne Potvin - Hitting On Nothing
TTITLE14=Marva Wright - Whole Lotta Shakin' Going On
TTITLE15=Sydney Ellis - I Feel Like Breaking Up Somebody's Home
TTITLE16=Odetta - New Orleans
EXTD=
EXTT0=
EXTT1=
EXTT2=
EXTT3=
EXTT4=
EXTT5=
EXTT6=
EXTT7=
EXTT8=
EXTT9=
EXTT10=
EXTT11=
EXTT12=
EXTT13=
EXTT14=
EXTT15=
EXTT16=
PLAYORDER=
